<?xml version="1.0" encoding="iso-8859-1"?>
<!-- Uploaded to: SVG Repo, www.svgrepo.com, Generator: SVG Repo Mixer Tools -->
<svg fill="#000000" height="800px" width="800px" version="1.1" id="Layer_1" xmlns="http://www.w3.org/2000/svg" xmlns:xlink="http://www.w3.org/1999/xlink" 
	 viewBox="0 0 491.52 491.52" xml:space="preserve">
<g>
	<g>
		<g>
			<path d="M20.48,163.84c11.305,0,20.48-9.175,20.48-20.48V40.96h102.4c11.305,0,20.48-9.175,20.48-20.48
				C163.84,9.175,154.665,0,143.36,0H20.48C9.175,0,0,9.175,0,20.48v122.88C0,154.665,9.175,163.84,20.48,163.84z"/>
			<path d="M471.04,0H348.16c-11.305,0-20.48,9.175-20.48,20.48c0,11.305,9.175,20.48,20.48,20.48h102.4v102.4
				c0,11.305,9.175,20.48,20.48,20.48c11.305,0,20.48-9.175,20.48-20.48V20.48C491.52,9.175,482.345,0,471.04,0z"/>
			<path d="M471.04,327.68c-11.305,0-20.48,9.175-20.48,20.48v102.4h-102.4c-11.305,0-20.48,9.175-20.48,20.48
				c0,11.305,9.175,20.48,20.48,20.48h122.88c11.305,0,20.48-9.175,20.48-20.48V348.16C491.52,336.855,482.345,327.68,471.04,327.68
				z"/>
			<path d="M143.36,450.56H40.96v-102.4c0-11.305-9.175-20.48-20.48-20.48S0,336.855,0,348.16v122.88
				c0,11.305,9.175,20.48,20.48,20.48h122.88c11.305,0,20.48-9.175,20.48-20.48C163.84,459.735,154.665,450.56,143.36,450.56z"/>
			<path d="M245.76,266.24c-22.589,0-40.96,18.371-40.96,40.96c0,22.589,18.371,40.96,40.96,40.96
				c22.589,0,40.96-18.371,40.96-40.96C286.72,284.611,268.349,266.24,245.76,266.24z"/>
			<path d="M418.05,302.569l46.203-41.595c4.321-3.871,6.779-9.4,6.779-15.217c0-5.816-2.458-11.346-6.779-15.217l-46.203-41.595
				c-98.222-88.392-246.354-88.392-344.576,0l-46.223,41.595c-4.301,3.871-6.779,9.4-6.779,15.217
				c0,5.816,2.478,11.346,6.779,15.217l46.223,41.595c32.748,29.471,71.086,48.886,111.227,58.716
				c-12.82-14.479-20.869-33.28-20.869-54.088c0-45.158,36.762-81.92,81.92-81.92c45.179,0,81.92,36.762,81.92,81.92
				c0,20.808-8.028,39.608-20.869,54.088C346.964,351.455,385.303,332.04,418.05,302.569z"/>
		</g>
	</g>
</g>
</svg>