<?xml version="1.0" encoding="utf-8"?>
<!-- Svg Vector Icons : http://www.onlinewebfonts.com/icon -->
<!DOCTYPE svg PUBLIC "-//W3C//DTD SVG 1.1//EN" "http://www.w3.org/Graphics/SVG/1.1/DTD/svg11.dtd">
<svg version="1.1" xmlns="http://www.w3.org/2000/svg" xmlns:xlink="http://www.w3.org/1999/xlink" x="0px" y="0px" viewBox="0 0 256 256" enable-background="new 0 0 256 256" xml:space="preserve">
<metadata> Svg Vector Icons : http://www.onlinewebfonts.com/icon </metadata>
<g><g><path stroke-width="6" fill-opacity="0" stroke="#000000"  d="M128,12.3c63.9,0,115.7,51.8,115.7,115.7c0,63.9-51.8,115.7-115.7,115.7c-63.9,0-115.7-51.8-115.7-115.7C12.3,64.1,64.1,12.3,128,12.3 M128,10C63,10,10,63,10,128c0,65,53,118,118,118c65,0,118-53,118-118C246,63,193,10,128,10L128,10z"/><path stroke-width="6" fill-opacity="0" stroke="#000000"  d="M156.4,179.8H99.6c-0.4,0-0.8-0.4-0.8-0.8V76.6c0-0.4,0.4-0.8,0.8-0.8h56.9c0.4,0,0.8,0.4,0.8,0.8v102.8C157.2,179.8,156.8,179.8,156.4,179.8z M100,178.6h55.7V77H100V178.6z"/><path stroke-width="6" fill-opacity="0" stroke="#000000"  d="M117.1,69.2h-0.4v-0.4v-0.4c0.4-0.4,0.8-0.4,0.8,0v0.4v0.4H117.1z"/><path stroke-width="6" fill-opacity="0" stroke="#000000"  d="M134.2,69.2h-12.4c-0.4,0-0.8-0.4-0.8-0.8s0.4-0.8,0.8-0.8h12.4c0.4,0,0.8,0.4,0.8,0.8S134.6,69.2,134.2,69.2z"/><path stroke-width="6" fill-opacity="0" stroke="#000000"  d="M128,64.9h-0.4v-0.4v-0.4c0.4,0,0.8,0,0.8,0v0.4C128.4,64.5,128.4,64.5,128,64.9C128.4,64.9,128,64.9,128,64.9z"/><path stroke-width="6" fill-opacity="0" stroke="#000000"  d="M153.7,196.2h-51.4c-0.8,0-1.2-0.4-1.2-1.2c0-0.8,0.4-1.2,1.2-1.2h51.4c0.8,0,1.2,0.4,1.2,1.2C154.9,195.8,154.5,196.2,153.7,196.2z"/><path stroke-width="6" fill-opacity="0" stroke="#000000"  d="M153.7,196.2c-0.8,0-1.2-0.4-1.2-1.2c0-0.8,0.4-1.2,1.2-1.2c3.1,0,5.4-2.3,5.4-5.4c0-0.8,0.4-1.2,1.2-1.2c0.8,0,1.2,0.4,1.2,1.2C161.5,192.6,158,196.2,153.7,196.2z"/><path stroke-width="6" fill-opacity="0" stroke="#000000"  d="M160.3,189.5c-0.8,0-1.2-0.4-1.2-1.2V67.2c0-0.8,0.4-1.2,1.2-1.2c0.8,0,1.2,0.4,1.2,1.2v121.1C161.5,189.1,161.1,189.5,160.3,189.5z"/><path stroke-width="6" fill-opacity="0" stroke="#000000"  d="M160.3,68.4c-0.8,0-1.2-0.4-1.2-1.2c0-3.1-2.3-5.4-5.4-5.4c-0.8,0-1.2-0.4-1.2-1.2c0-0.8,0.4-1.2,1.2-1.2c4.3,0,7.8,3.5,7.8,7.8C161.5,68,161.1,68.4,160.3,68.4z"/><path stroke-width="6" fill-opacity="0" stroke="#000000"  d="M153.7,61.8h-51.4c-0.8,0-1.2-0.4-1.2-1.2c0-0.8,0.4-1.2,1.2-1.2h51.4c0.8,0,1.2,0.4,1.2,1.2C154.9,61.4,154.5,61.8,153.7,61.8z"/><path stroke-width="6" fill-opacity="0" stroke="#000000"  d="M95.7,68.4c-0.8,0-1.2-0.4-1.2-1.2c0-4.3,3.5-7.8,7.8-7.8c0.8,0,1.2,0.4,1.2,1.2c0,0.8-0.4,1.2-1.2,1.2c-3.1,0-5.4,2.3-5.4,5.4C96.8,68,96.5,68.4,95.7,68.4z"/><path stroke-width="6" fill-opacity="0" stroke="#000000"  d="M95.7,189.5c-0.8,0-1.2-0.4-1.2-1.2V67.2c0-0.8,0.4-1.2,1.2-1.2c0.8,0,1.2,0.4,1.2,1.2v121.1C96.8,189.1,96.5,189.5,95.7,189.5z"/><path stroke-width="6" fill-opacity="0" stroke="#000000"  d="M102.3,196.2c-4.3,0-7.8-3.5-7.8-7.8c0-0.8,0.4-1.2,1.2-1.2s1.2,0.4,1.2,1.2c0,3.1,2.3,5.4,5.4,5.4c0.8,0,1.2,0.4,1.2,1.2C103.5,195.8,103.1,196.2,102.3,196.2z"/><path stroke-width="6" fill-opacity="0" stroke="#000000"  d="M128,192.6c-3.1,0-5.4-2.3-5.4-5.4c0-3.1,2.3-5.4,5.4-5.4s5.4,2.3,5.4,5.4C133.4,190.3,131.1,192.6,128,192.6z M128,182.9c-2.3,0-4.3,1.9-4.3,4.3c0,2.3,2,4.3,4.3,4.3s4.3-2,4.3-4.3C132.3,184.9,130.3,182.9,128,182.9z"/></g></g>
</svg>