<svg xmlns="http://www.w3.org/2000/svg" viewBox="0 0 32 32"><defs><style>.cls-1{fill:#231f20;}</style></defs><g id="mobile_shopping" data-name="mobile shopping"><path class="cls-1" d="M21.71,2H9.29A3.3,3.3,0,0,0,6,5.29V26.71A3.3,3.3,0,0,0,9.29,30H21.71A3.3,3.3,0,0,0,25,26.71V5.29A3.3,3.3,0,0,0,21.71,2ZM9.29,4H21.71A1.29,1.29,0,0,1,23,5.29V22H8V5.29A1.29,1.29,0,0,1,9.29,4ZM21.71,28H9.29A1.29,1.29,0,0,1,8,26.71V24H23v2.71A1.29,1.29,0,0,1,21.71,28Z"/><path class="cls-1" d="M16,25H15a1,1,0,0,0,0,2h1a1,1,0,0,0,0-2Z"/><path class="cls-1" d="M10,10h.79L11,11.15v0L11.6,15a2.09,2.09,0,0,0,2,2H14a1,1,0,1,0,1,1,1,1,0,0,0-1-1h3a1,1,0,1,0,1,1,1,1,0,0,0-1-1h.21a2,2,0,0,0,2-1.65L20,12.21a1.62,1.62,0,0,0-.37-1.37A2.18,2.18,0,0,0,18,10H12.83l-.16-.82A.79.79,0,0,0,12.61,9a1.59,1.59,0,0,0-1.43-1H10a1,1,0,0,0,0,2Zm7.92,2,0,0-.72,2.87c0,.07,0,.11,0,.11H13.66s-.06-.06-.07-.24L13.16,12Z"/></g></svg>